<svg width="24" height="24" viewBox="0 0 24 24" fill="none" xmlns="http://www.w3.org/2000/svg">
<g clip-path="url(#clip0_2359_19276)">
<path d="M11.4068 23.2581L11.4178 23.2601L11.4888 23.2951L11.5088 23.2991L11.5228 23.2951L11.5938 23.2601C11.6045 23.2567 11.6125 23.2584 11.6178 23.2651L11.6218 23.2751L11.6388 23.7031L11.6338 23.7231L11.6238 23.7361L11.5198 23.8101L11.5048 23.8141L11.4928 23.8101L11.3888 23.7361L11.3768 23.7201L11.3728 23.7031L11.3898 23.2761C11.3925 23.2654 11.3982 23.2594 11.4068 23.2581ZM11.1418 23.1451L11.1548 23.1471L11.3398 23.2401L11.3498 23.2501L11.3528 23.2611L11.3348 23.6911L11.3298 23.7031L11.3218 23.7101L11.1208 23.8031C11.1082 23.8064 11.0985 23.8037 11.0918 23.7951L11.0878 23.7811L11.1218 23.1671C11.1252 23.1551 11.1318 23.1477 11.1418 23.1451ZM11.8568 23.1471C11.8612 23.1444 11.8665 23.1435 11.8715 23.1446C11.8766 23.1458 11.881 23.1488 11.8838 23.1531L11.8898 23.1671L11.9238 23.7811C11.9232 23.7931 11.9175 23.8011 11.9068 23.8051L11.8918 23.8031L11.6908 23.7101L11.6808 23.7021L11.6768 23.6911L11.6598 23.2611L11.6628 23.2491L11.6728 23.2391L11.8568 23.1471Z" fill="#085055"/>
<path d="M20 16C19.7551 16 19.5187 16.09 19.3356 16.2527C19.1526 16.4155 19.0357 16.6397 19.007 16.883L19 17V19H17C16.7451 19.0003 16.5 19.0979 16.3146 19.2728C16.1293 19.4478 16.0178 19.687 16.0028 19.9414C15.9879 20.1958 16.0707 20.4464 16.2343 20.6418C16.3979 20.8373 16.6299 20.9629 16.883 20.993L17 21H19C19.5046 21.0002 19.9906 20.8096 20.3605 20.4665C20.7305 20.1234 20.9572 19.6532 20.995 19.15L21 19V17C21 16.7348 20.8946 16.4804 20.7071 16.2929C20.5196 16.1054 20.2652 16 20 16ZM4 16C3.73478 16 3.48043 16.1054 3.29289 16.2929C3.10536 16.4804 3 16.7348 3 17V19C3 19.5304 3.21071 20.0391 3.58579 20.4142C3.96086 20.7893 4.46957 21 5 21H7C7.26522 21 7.51957 20.8946 7.70711 20.7071C7.89464 20.5196 8 20.2652 8 20C8 19.7348 7.89464 19.4804 7.70711 19.2929C7.51957 19.1054 7.26522 19 7 19H5V17C5 16.7348 4.89464 16.4804 4.70711 16.2929C4.51957 16.1054 4.26522 16 4 16ZM9.2 13.857C9.1067 13.7629 8.99563 13.6882 8.87323 13.6374C8.75084 13.5866 8.61957 13.5606 8.48704 13.561C8.35452 13.5614 8.22339 13.5881 8.10128 13.6396C7.97917 13.6911 7.8685 13.7663 7.77573 13.8609C7.68295 13.9556 7.60991 14.0677 7.56085 14.1908C7.51179 14.3139 7.48769 14.4455 7.48995 14.578C7.4922 14.7105 7.52078 14.8413 7.57401 14.9626C7.62723 15.084 7.70405 15.1936 7.8 15.285C8.92039 16.3861 10.4291 17.0022 12 17C13.5709 17.0022 15.0796 16.3861 16.2 15.285C16.2959 15.1936 16.3728 15.084 16.426 14.9626C16.4792 14.8413 16.5078 14.7105 16.5101 14.578C16.5123 14.4455 16.4882 14.3139 16.4391 14.1908C16.3901 14.0677 16.317 13.9556 16.2243 13.8609C16.1315 13.7663 16.0208 13.6911 15.8987 13.6396C15.7766 13.5881 15.6455 13.5614 15.513 13.561C15.3804 13.5606 15.2492 13.5866 15.1268 13.6374C15.0044 13.6882 14.8933 13.7629 14.8 13.857C14.0534 14.5916 13.0474 15.0023 12 15C10.91 15 9.923 14.565 9.2 13.857ZM15.5 8C15.1022 8 14.7206 8.15804 14.4393 8.43934C14.158 8.72064 14 9.10218 14 9.5C14 9.89782 14.158 10.2794 14.4393 10.5607C14.7206 10.842 15.1022 11 15.5 11C15.8978 11 16.2794 10.842 16.5607 10.5607C16.842 10.2794 17 9.89782 17 9.5C17 9.10218 16.842 8.72064 16.5607 8.43934C16.2794 8.15804 15.8978 8 15.5 8ZM8.5 8C8.10218 8 7.72064 8.15804 7.43934 8.43934C7.15804 8.72064 7 9.10218 7 9.5C7 9.89782 7.15804 10.2794 7.43934 10.5607C7.72064 10.842 8.10218 11 8.5 11C8.89782 11 9.27936 10.842 9.56066 10.5607C9.84196 10.2794 10 9.89782 10 9.5C10 9.10218 9.84196 8.72064 9.56066 8.43934C9.27936 8.15804 8.89782 8 8.5 8ZM17 3C16.7348 3 16.4804 3.10536 16.2929 3.29289C16.1054 3.48043 16 3.73478 16 4C16 4.26522 16.1054 4.51957 16.2929 4.70711C16.4804 4.89464 16.7348 5 17 5H19V7C19 7.26522 19.1054 7.51957 19.2929 7.70711C19.4804 7.89464 19.7348 8 20 8C20.2652 8 20.5196 7.89464 20.7071 7.70711C20.8946 7.51957 21 7.26522 21 7V5C21 4.46957 20.7893 3.96086 20.4142 3.58579C20.0391 3.21071 19.5304 3 19 3H17ZM5 3C4.46957 3 3.96086 3.21071 3.58579 3.58579C3.21071 3.96086 3 4.46957 3 5V7C3 7.26522 3.10536 7.51957 3.29289 7.70711C3.48043 7.89464 3.73478 8 4 8C4.26522 8 4.51957 7.89464 4.70711 7.70711C4.89464 7.51957 5 7.26522 5 7V5H7C7.26522 5 7.51957 4.89464 7.70711 4.70711C7.89464 4.51957 8 4.26522 8 4C8 3.73478 7.89464 3.48043 7.70711 3.29289C7.51957 3.10536 7.26522 3 7 3H5Z" fill="#085055"/>
</g>
<defs>
<clipPath id="clip0_2359_19276">
<rect width="24" height="24" fill="white" transform="matrix(-1 0 0 1 24 0)"/>
</clipPath>
</defs>
</svg>
