<svg width="24" height="24" viewBox="0 0 24 24" fill="none" xmlns="http://www.w3.org/2000/svg">
<g clip-path="url(#clip0_2359_19285)">
<path d="M11.9992 22.9542C13.1248 22.9542 14.2394 22.7325 15.2793 22.3018C16.3192 21.871 17.2641 21.2397 18.0601 20.4437C18.856 19.6478 19.4874 18.7029 19.9181 17.6629C20.3489 16.623 20.5706 15.5084 20.5706 14.3828V9.61709C20.5707 7.51141 19.7957 5.47936 18.3934 3.90852M3.42773 11.5199V14.3828C3.42716 16.0702 3.92463 17.7202 4.85778 19.126C5.79094 20.5318 7.11828 21.631 8.67345 22.2857M16.2849 2.19423C14.3162 1.05764 11.9767 0.749632 9.78089 1.33796C7.58512 1.92628 5.71298 3.36275 4.57631 5.33138C4.10798 6.13958 3.77773 7.02023 3.59916 7.93709" stroke="#085055" stroke-width="3" stroke-linecap="round" stroke-linejoin="round"/>
<path d="M11.1077 6.01708C11.7382 5.88618 12.3901 5.89847 13.0152 6.05305C13.6403 6.20762 14.2228 6.50053 14.7197 6.91018C15.2165 7.31984 15.6151 7.83579 15.886 8.41999C16.1569 9.00419 16.2932 9.64175 16.2849 10.2856V13.0456M15.1877 16.6456C14.6044 17.2954 13.8366 17.7514 12.987 17.9528C12.1375 18.1542 11.2466 18.0913 10.4338 17.7725C9.62095 17.4537 8.92486 16.8942 8.4387 16.1689C7.95254 15.4437 7.6995 14.5872 7.71344 13.7142V10.2856C7.70872 9.69673 7.82543 9.11317 8.05629 8.57136M11.9992 10.4742V13.3371" stroke="#085055" stroke-width="3" stroke-linecap="round" stroke-linejoin="round"/>
</g>
<defs>
<clipPath id="clip0_2359_19285">
<rect width="24" height="24" fill="white"/>
</clipPath>
</defs>
</svg>
